<?xml version="1.0" encoding="UTF-8" standalone="no"?>
<svg width="100%" height="100%" viewBox="0 0 1024 1024" version="1.1" xmlns="http://www.w3.org/2000/svg" xmlns:xlink="http://www.w3.org/1999/xlink" xml:space="preserve" xmlns:serif="http://www.serif.com/" style="fill-rule:evenodd;clip-rule:evenodd;stroke-linejoin:round;stroke-miterlimit:2;">
    <path d="M775.252,584.866C924.246,674.448 1024,837.666 1024,1024C1024,1306.58 794.58,1536 512,1536C229.42,1536 0,1306.58 0,1024C0,837.666 99.754,674.448 248.748,584.866C315.179,654.069 408.596,697.169 512,697.169C615.404,697.169 708.821,654.069 775.252,584.866ZM512,33.382C676.943,33.382 810.856,167.296 810.856,332.239C810.856,497.182 676.943,631.095 512,631.095C347.057,631.095 213.144,497.182 213.144,332.239C213.144,167.296 347.057,33.382 512,33.382Z" style="fill:rgb(80,80,80);" />
</svg>